<svg t="1677740716497" class="icon" viewBox="0 0 1024 1024" version="1.1" xmlns="http://www.w3.org/2000/svg" p-id="1960" width="128" height="128"><path d="M818.2784 878.592V510.9248l-163.1232 94.208V972.8l163.1232-94.208z" fill="#787878" p-id="1961"></path><path d="M368.8448 251.4432l-163.1232 94.208 449.4336 259.4816 163.1232-94.1568-449.4336-259.5328z" fill="#9A9A9A" p-id="1962"></path><path d="M205.7216 345.6v367.4112l449.4336 259.4816v-367.36L205.7216 345.6z" fill="#868686" p-id="1963"></path><path d="M205.7216 345.6v367.4112l449.4336 259.4816v-367.36L205.7216 345.6z" fill="#868686" p-id="1964"></path><path d="M354.1504 798.72l47.9232 27.648V459.008l-47.9232-27.648V798.72zM439.7056 848.0768l47.9232 27.6992V508.3648l-47.9232-27.648v367.36z" fill="#FFFFFF" p-id="1965"></path><path d="M511.2832 51.2L314.8288 164.6592 527.36 287.3856l196.5056-113.4592L511.2832 51.2z" fill="#787878" p-id="1966"></path><path d="M314.4192 164.4032v288.1024L527.36 575.4368V287.3344L314.4192 164.4032z" fill="#FFD09C" p-id="1967"></path><path d="M723.9168 173.824L527.36 287.3344v288.1024l196.5568-113.5104V173.824z" fill="#EFBA84" p-id="1968"></path><path d="M723.9168 173.824L527.36 287.3344v48.5888l38.2976-21.504v128.8192l60.0064-32.512v37.2736l98.2528-50.5344V173.824zM314.4192 164.4032v57.0368L484.1984 358.912v-48.5888l43.1616 25.6v-48.5888L314.4192 164.4032z" fill="#787878" p-id="1969"></path></svg>