<svg t="1677749822776" class="icon" viewBox="0 0 1024 1024" version="1.1" xmlns="http://www.w3.org/2000/svg" p-id="2873" width="128" height="128"><path d="M732.09 198.834h-21.426v503.848c0 26.26-21.279 47.549-47.539 47.549H244.014v27.432c0 26.26 21.279 47.549 47.539 47.549H732.09c26.25 0 47.539-21.289 47.539-47.549v-531.29c0-26.25-21.289-47.539-47.539-47.539" fill="#4510E6" opacity=".1" p-id="2874"></path><path d="M624.834 397.203h-226.03c-13.807 0-25-11.193-25-25s11.193-25 25-25h226.03c13.808 0 25 11.193 25 25s-11.192 25-25 25zM567.441 537.018H398.804c-13.807 0-25-11.193-25-25s11.193-25 25-25h168.638c13.808 0 25 11.193 25 25-0.001 13.806-11.193 25-25.001 25zM624.834 676.842h-226.03c-13.807 0-25-11.193-25-25s11.193-25 25-25h226.03c13.808 0 25 11.193 25 25s-11.192 25-25 25z" fill="#50E3C2" p-id="2875"></path><path d="M732.09 850.211H291.553c-39.998 0-72.539-32.545-72.539-72.549V246.383c0-40.003 32.541-72.549 72.539-72.549H732.09c39.998 0 72.539 32.545 72.539 72.549v531.279c0 40.004-32.541 72.549-72.539 72.549zM291.553 223.834c-12.428 0-22.539 10.115-22.539 22.549v531.279c0 12.434 10.111 22.549 22.539 22.549H732.09c12.428 0 22.539-10.115 22.539-22.549V246.383c0-12.434-10.111-22.549-22.539-22.549H291.553z" fill="#4510E6" p-id="2876"></path></svg>