<svg t="1677740660294" class="icon" viewBox="0 0 1024 1024" version="1.1" xmlns="http://www.w3.org/2000/svg" p-id="22439" width="128" height="128"><path d="M318.976 776.1408l-161.792-93.44 381.8496-220.5184 161.8432 93.44-381.9008 220.5184z" fill="#E54545" p-id="22440"></path><path d="M866.8672 769.7408l-279.3472 161.28v-291.84l279.3472-161.28v291.84z" fill="#FF625A" p-id="22441"></path><path d="M587.52 692.9408l279.3472 28.7744V477.9008l-279.3472 161.28v53.76z" fill="#E54545" p-id="22442"></path><path d="M645.1712 672.4608L372.48 274.3808 99.7888 357.5808l57.6 33.28v291.84l161.8432 93.44v-151.04l106.4448 61.44v151.04l161.8432 93.44v-291.84l57.6512 33.28z" fill="#FF9997" p-id="22443"></path><path d="M651.52 92.9792l-279.04 161.28-272.6912 83.2 279.04-161.28 272.6912-83.2z" fill="#F2C23B" p-id="22444"></path><path d="M372.48 254.2592l272.6912 398.08 279.04-161.28-272.6912-398.08-279.04 161.28z" fill="#FFE088" p-id="22445"></path><path d="M587.52 692.9408l-430.1312-248.32v-53.76l430.1312 248.32v53.76z" fill="#FF8080" p-id="22446"></path><path d="M924.2112 511.3344l-279.04 161.1264v-20.2752l279.04-161.1264v20.2752z" fill="#F2C23B" p-id="22447"></path><path d="M644.7104 651.6736L372.48 254.2592 100.1984 337.3568l-0.4096-0.256v20.48l545.3824 314.88v-20.48l-0.4608-0.3072z" fill="#FFCE43" p-id="22448"></path></svg>