<svg t="1677747397442" class="icon" viewBox="0 0 1024 1024" version="1.1" xmlns="http://www.w3.org/2000/svg" p-id="13185" width="128" height="128"><path d="M512 1024a512 512 0 1 1 512-512 512.568889 512.568889 0 0 1-512 512z m0-946.915556A434.915556 434.915556 0 1 0 946.915556 512 435.427556 435.427556 0 0 0 512 77.084444z" fill="#467CFD" p-id="13186"></path><path d="M390.883556 792.746667a38.513778 38.513778 0 0 1-38.513778-38.513778V269.767111a38.513778 38.513778 0 1 1 77.084444 0v484.465778a38.513778 38.513778 0 0 1-38.570666 38.513778zM633.116444 792.746667a38.513778 38.513778 0 0 1-38.513777-38.513778V269.767111a38.513778 38.513778 0 1 1 77.084444 0v484.465778a38.513778 38.513778 0 0 1-38.570667 38.513778z" fill="#8BAEF7" p-id="13187"></path></svg>