<svg t="1677748239471" class="icon" viewBox="0 0 1024 1024" version="1.1" xmlns="http://www.w3.org/2000/svg" p-id="2807" width="128" height="128"><path d="M731.818667 500.280889L386.844444 239.729778a14.677333 14.677333 0 0 0-23.495111 11.719111v521.159111a14.677333 14.677333 0 0 0 23.495111 11.662222l344.860445-260.608a14.677333 14.677333 0 0 0 0.113778-23.381333z" fill="#8BAEF7" p-id="2808"></path><path d="M512 1024a512 512 0 1 1 512-512 512.568889 512.568889 0 0 1-512 512z m0-946.915556A434.915556 434.915556 0 1 0 946.915556 512 435.427556 435.427556 0 0 0 512 77.084444z" fill="#467CFD" p-id="2809"></path></svg>